<svg width="100%" height="100%" viewBox="0 0 128 131" fill="none" xmlns="http://www.w3.org/2000/svg">
<g clip-path="url(#clip0_51_146)">
<path d="M127.939 66.7256C127.939 61.3586 127.503 57.4421 126.561 53.3806H65.2749V77.6046H101.248C100.523 83.6246 96.6069 92.6906 87.9034 98.7826L87.7814 99.5936L107.159 114.605L108.501 114.739C120.831 103.352 127.939 86.5981 127.939 66.7256Z" fill="#4285F4"/>
<path d="M65.2749 130.55C82.8989 130.55 97.6944 124.748 108.501 114.739L87.9034 98.7826C82.3914 102.627 74.9934 105.31 65.2749 105.31C48.0134 105.31 33.3629 93.9236 28.1404 78.1851L27.3749 78.2501L7.2259 93.8436L6.9624 94.5761C17.6964 115.899 39.7449 130.55 65.2749 130.55Z" fill="#34A853"/>
<path d="M28.1405 78.185C26.7625 74.1235 25.965 69.7715 25.965 65.275C25.965 60.778 26.7625 56.4265 28.068 52.365L28.0315 51.5L7.63 35.656L6.9625 35.9735C2.5385 44.822 0 54.7585 0 65.275C0 75.7915 2.5385 85.7275 6.9625 94.576L28.1405 78.185Z" fill="#FBBC05"/>
<path d="M65.2749 25.2395C77.5319 25.2395 85.7999 30.534 90.5144 34.9585L108.936 16.9715C97.6224 6.455 82.8989 0 65.2749 0C39.7449 0 17.6964 14.6505 6.9624 35.9735L28.0679 52.365C33.3629 36.6265 48.0134 25.2395 65.2749 25.2395Z" fill="#EB4335"/>
</g>
<defs>
<clipPath id="clip0_51_146">
<rect width="128" height="131" fill="white"/>
</clipPath>
</defs>
</svg>
